<?xml version="1.0" encoding="UTF-8"?>
<svg id="Layer_2" data-name="Layer 2" xmlns="http://www.w3.org/2000/svg" viewBox="0 0 572.77 392.23">
  <defs>
    <style>
      .cls-1, .cls-2, .cls-3, .cls-4, .cls-5, .cls-6, .cls-7, .cls-8, .cls-9 {
        stroke-width: 0px;
      }

      .cls-2, .cls-7 {
        fill: #ccced3;
      }

      .cls-3, .cls-4 {
        fill: #fff;
      }

      .cls-4, .cls-5, .cls-7, .cls-9 {
        fill-rule: evenodd;
      }

      .cls-5, .cls-6 {
        fill: #fbfbfb;
      }

      .cls-8, .cls-9 {
        fill: #1d1d1b;
      }
    </style>
  </defs>
  <g id="katman_1" data-name="katman 1">
    <g>
      <path class="cls-5" d="m551.46,392.23H21.31c-11.66,0-21.21-9.54-21.21-21.21v-127.24c0-11.66,9.54-21.21,21.21-21.21h530.15c11.66,0,21.21,9.54,21.21,21.21v127.24c0,11.66-9.54,21.21-21.21,21.21"/>
      <g>
        <ellipse class="cls-8" cx="239.07" cy="335.14" rx="18.11" ry="18.04"/>
        <ellipse class="cls-8" cx="278.57" cy="335.14" rx="18.11" ry="18.04"/>
      </g>
      <g>
        <path class="cls-2" d="m467.11,0H40.44c-1.56,0-3.09,0-4.64,0-1.3,0-2.59.03-3.9.05-2.85.03-5.69.28-8.5.75-2.81.48-5.52,1.37-8.06,2.66-2.54,1.3-4.85,2.99-6.87,5-2.02,2.01-3.71,4.33-5,6.88-1.29,2.54-2.18,5.26-2.65,8.07-.47,2.81-.73,5.64-.76,8.49-.04,1.3-.05,2.6-.07,3.91v98.03c.02,1.32.03,2.59.07,3.91.03,2.84.29,5.68.76,8.49.47,2.81,1.36,5.54,2.65,8.08,1.29,2.53,2.97,4.85,5,6.84,2.01,2.02,4.32,3.71,6.86,5,2.54,1.29,5.26,2.19,8.06,2.68,2.81.46,5.65.71,8.5.75,1.31.03,2.6.04,3.9.04,1.55,0,3.09,0,4.64,0h491.92c1.52,0,3.07,0,4.6,0,1.29,0,2.62-.02,3.91-.05,2.84-.03,5.68-.28,8.48-.75,2.82-.48,5.54-1.39,8.09-2.68,2.54-1.29,4.86-2.98,6.86-5,2.02-2,3.71-4.32,5.01-6.84,1.28-2.54,2.17-5.27,2.63-8.08.47-2.81.73-5.64.79-8.49.02-1.32.02-2.59.02-3.91.03-1.54.03-3.07.03-4.64V40.45c0-1.55,0-3.09-.03-4.63,0-1.3,0-2.6-.02-3.91-.05-2.84-.31-5.68-.79-8.49-.46-2.81-1.35-5.53-2.63-8.07-2.62-5.1-6.77-9.26-11.87-11.88-2.55-1.29-5.28-2.18-8.09-2.66-2.81-.47-5.64-.72-8.48-.75-1.29-.02-2.62-.05-3.91-.06-1.52,0-3.07,0-4.6,0h-65.25Z"/>
        <path class="cls-6" d="m35.82,165.94c-1.29,0-2.55-.02-3.83-.04-2.66-.04-5.31-.27-7.93-.69-2.45-.42-4.81-1.21-7.03-2.33-2.19-1.11-4.19-2.56-5.92-4.31-1.76-1.73-3.22-3.73-4.33-5.92-1.12-2.21-1.9-4.58-2.3-7.03-.43-2.63-.67-5.29-.7-7.95-.03-.89-.07-3.87-.07-3.87V35.82s.04-2.94.07-3.79c.03-2.66.27-5.32.7-7.94.4-2.45,1.18-4.83,2.31-7.05,1.11-2.2,2.56-4.2,4.31-5.93,1.74-1.75,3.75-3.21,5.94-4.34,2.21-1.11,4.57-1.89,7.01-2.3,2.63-.43,5.29-.67,7.95-.7l3.83-.05h501.11l3.87.06c2.64.03,5.28.26,7.88.69,2.46.42,4.85,1.2,7.09,2.33,4.4,2.27,7.98,5.86,10.24,10.26,1.1,2.21,1.87,4.56,2.27,6.99.44,2.65.69,5.32.74,8,.01,1.2.01,2.49.01,3.78.03,1.59.03,3.1.03,4.63v88.76c0,1.54,0,3.04-.03,4.56,0,1.38,0,2.64-.02,3.94-.05,2.63-.29,5.26-.72,7.86-.39,2.46-1.17,4.85-2.29,7.08-1.12,2.17-2.57,4.16-4.31,5.88-1.73,1.75-3.74,3.22-5.94,4.34-2.23,1.13-4.61,1.92-7.07,2.33-2.62.42-5.27.66-7.93.69-1.24.03-2.54.05-3.81.05h-4.6s-496.54,0-496.54,0h0Z"/>
        <g>
          <path class="cls-1" d="m111.01,85.09c.12-8.85,4.75-17.02,12.29-21.65-4.78-6.82-12.49-11-20.81-11.25-8.76-.92-17.25,5.24-21.71,5.24s-11.42-5.15-18.82-5c-9.73.32-18.59,5.72-23.33,14.23-10.08,17.47-2.56,43.13,7.1,57.24,4.83,6.91,10.49,14.63,17.88,14.36,7.23-.3,9.94-4.61,18.67-4.61s11.19,4.61,18.73,4.44c7.76-.12,12.65-6.94,17.31-13.92,3.47-4.93,6.15-10.37,7.92-16.13-9.22-3.9-15.21-12.94-15.22-22.95Zm-14.25-42.19c4.23-5.08,6.32-11.61,5.81-18.21-6.47.68-12.44,3.77-16.73,8.66-4.24,4.82-6.38,11.13-5.96,17.53,6.55.07,12.78-2.87,16.88-7.99h0Z"/>
          <path class="cls-1" d="m195.24,71.77h-20.07l-4.83,14.23h-8.5l19.01-52.67h8.83l19.02,52.67h-8.65l-4.82-14.23Zm-18-6.57h15.91l-7.85-23.1h-.22s-7.85,23.1-7.85,23.1Zm72.53,1.61c0,11.93-6.39,19.6-16.03,19.6-4.98.26-9.67-2.35-12.08-6.72h-.18v19.02h-7.88v-51.1h7.63v6.39h.14c2.51-4.34,7.21-6.95,12.23-6.79,9.75,0,16.17,7.7,16.17,19.6h0Zm-8.1,0c0-7.77-4.02-12.88-10.15-12.88s-10.07,5.22-10.07,12.89,4.05,12.92,10.07,12.92,10.15-5.08,10.15-12.92h0Zm50.37,0c0,11.93-6.39,19.6-16.03,19.6-4.98.26-9.67-2.35-12.08-6.72h-.18v19.02h-7.88v-51.1h7.63v6.39h.14c2.52-4.34,7.21-6.95,12.23-6.79,9.75,0,16.17,7.7,16.17,19.6h0Zm-8.1,0c0-7.77-4.02-12.88-10.15-12.88s-10.07,5.22-10.07,12.89,4.05,12.92,10.07,12.92,10.15-5.08,10.15-12.92h0Zm36.03,4.53c.59,5.22,5.66,8.65,12.59,8.65s11.42-3.43,11.42-8.14c0-4.09-2.88-6.53-9.71-8.21l-6.83-1.64c-9.67-2.34-14.16-6.86-14.16-14.2,0-9.09,7.92-15.33,19.16-15.33s18.76,6.24,19.02,15.33h-7.96c-.48-5.26-4.82-8.43-11.17-8.43s-10.69,3.21-10.69,7.88c0,3.73,2.78,5.91,9.57,7.59l5.8,1.43c10.81,2.55,15.29,6.9,15.29,14.6,0,9.85-7.85,16.03-20.33,16.03-11.68,0-19.57-6.03-20.08-15.55,0,0,8.07,0,8.07,0Zm49.35-32.81v9.09h7.3v6.24h-7.3v21.17c0,3.29,1.46,4.82,4.67,4.82.87-.02,1.73-.08,2.59-.18v6.2c-1.45.27-2.91.39-4.38.37-7.77,0-10.81-2.92-10.81-10.36v-22.01h-5.59v-6.24h5.59v-9.09h7.92Zm11.53,28.29c0-12.08,7.12-19.67,18.21-19.67s18.22,7.59,18.22,19.67-7.05,19.67-18.22,19.67-18.21-7.56-18.21-19.67Zm28.4,0c0-8.29-3.8-13.18-10.19-13.18s-10.18,4.93-10.18,13.18,3.8,13.17,10.18,13.17,10.19-4.85,10.19-13.17h0Zm14.53-19.2h7.52v6.53h.18c1.05-4.21,4.9-7.1,9.23-6.94.91,0,1.82.1,2.7.29v7.37c-1.15-.35-2.34-.51-3.54-.48-2.32-.09-4.56.83-6.14,2.53-1.58,1.7-2.34,4-2.07,6.31v22.77h-7.89v-38.39h0Zm55.98,27.12c-1.06,6.97-7.85,11.75-16.53,11.75-11.17,0-18.1-7.48-18.1-19.49s6.97-19.86,17.77-19.86,17.3,7.3,17.3,18.94v2.7h-27.12v.48c-.25,2.86.73,5.69,2.71,7.77,1.98,2.08,4.75,3.21,7.62,3.11,3.83.36,7.43-1.84,8.87-5.4h7.48Zm-26.64-11.46h19.2c.14-2.57-.79-5.08-2.58-6.93-1.79-1.85-4.27-2.87-6.84-2.82-2.59-.02-5.08,1-6.92,2.84-1.84,1.83-2.87,4.32-2.86,6.91Z"/>
        </g>
      </g>
      <path class="cls-7" d="m551.46,222.58H21.31C9.65,222.58.1,232.13.1,243.79v127.24c0,11.66,9.54,21.21,21.21,21.21h530.15c11.66,0,21.21-9.54,21.21-21.21v-127.24c0-11.66-9.54-21.21-21.21-21.21m0,3.39c9.82,0,17.81,7.99,17.81,17.81v127.24c0,9.82-7.99,17.81-17.81,17.81H21.31c-9.82,0-17.81-7.99-17.81-17.81v-127.24c0-9.82,7.99-17.81,17.81-17.81h530.15"/>
      <rect class="cls-8" x="443.14" y="299.07" width="7.91" height="53.02"/>
      <polygon class="cls-9" points="514.41 318.17 505.34 341.15 505.07 341.15 495.66 318.17 487.13 318.17 501.25 350.29 493.2 368.17 501.45 368.17 523.21 318.17 514.41 318.17"/>
      <path class="cls-9" d="m470.49,317.01c-5.73,0-11.66,2.52-14.12,8.12l7.02,2.93c1.5-2.93,4.3-3.89,7.23-3.89,4.09,0,8.25,2.46,8.32,6.82v.55c-1.44-.82-4.5-2.04-8.25-2.04-7.58,0-15.28,4.16-15.28,11.93,0,7.1,6.21,11.67,13.17,11.67,5.31,0,8.25-2.39,10.09-5.19h.27v4.09h7.64v-20.33c0-9.42-7.03-14.66-16.1-14.66Z"/>
      <path class="cls-9" d="m421.37,299.07h-18.96v53.02h7.91v-20.09h11.05c8.77,0,17.39-6.35,17.39-16.47s-8.62-16.46-17.39-16.46h0Z"/>
      <path class="cls-9" d="m327.05,321.13h-.27c-1.78-2.12-5.2-4.04-9.49-4.04-9.02,0-17.29,7.93-17.29,18.11s8.27,17.97,17.29,17.97c4.3,0,7.72-1.91,9.49-4.09h.27v2.59c0,6.9-3.69,10.59-9.63,10.59-4.85,0-7.86-3.48-9.09-6.42l-6.9,2.87c1.98,4.78,7.24,10.66,15.99,10.66,9.3,0,17.15-5.47,17.15-18.79v-32.39h-7.52v2.94h0Z"/>
      <polygon class="cls-9" points="340.04 352.08 347.97 352.08 347.97 299.07 340.04 299.07 340.04 352.09 340.04 352.08"/>
      <path class="cls-9" d="m384.24,328.58c-1.5-4.03-6.08-11.48-15.44-11.48s-17.01,7.32-17.01,18.04c0,10.11,7.65,18.04,17.9,18.04,8.27,0,13.05-5.06,15.04-8l-6.15-4.1c-2.06,3.01-4.85,4.99-8.89,4.99s-6.9-1.85-8.74-5.47l24.12-9.98-.82-2.05h0Z"/>
      <path class="cls-9" d="m192.08,322.64v7.65h18.32c-.55,4.31-1.99,7.45-4.17,9.63-2.67,2.67-6.84,5.6-14.15,5.6-11.28,0-20.09-9.09-20.09-20.36s8.82-20.36,20.09-20.36c6.08,0,10.52,2.39,13.8,5.46l5.4-5.4c-4.58-4.37-10.66-7.72-19.2-7.72-15.44,0-28.42,12.58-28.42,28.02s12.98,28.01,28.42,28.01c8.34,0,14.62-2.73,19.54-7.86,5.05-5.06,6.63-12.16,6.63-17.9,0-1.77-.13-3.41-.41-4.78h-25.76,0Z"/>
      <g>
        <path class="cls-9" d="m94.71,307.4l-51.37-51.27c-.59,1.19-.94,2.65-.94,4.42v93.72c0,1.79.36,3.28.97,4.47l51.34-51.34Z"/>
        <path class="cls-9" d="m43.49,255.8s.05-.09.08-.14c-.03.05-.05.09-.08.14Z"/>
        <path class="cls-9" d="m97.68,304.43l15.82-15.82-60.32-34.27c-1.71-.98-3.32-1.44-4.76-1.44-.73,0-1.4.13-2.02.36l51.28,51.17Z"/>
        <path class="cls-9" d="m135.81,301.29l-18.49-10.51-16.64,16.64,16.64,16.6,18.49-10.51c5.92-3.36,5.92-8.87,0-12.23Z"/>
        <path class="cls-9" d="m97.71,310.4l-51.17,51.19c1.83.62,4.12.32,6.63-1.1l60.36-34.31-15.82-15.78Z"/>
        <path class="cls-9" d="m43.44,358.9c.24.44.51.84.82,1.19-.31-.36-.6-.74-.82-1.19Z"/>
      </g>
      <g>
        <path class="cls-3" d="m239.07,324.21c-5.46,0-10.18,4.44-10.18,10.93s4.71,10.94,10.18,10.94,10.18-4.51,10.18-10.94-4.71-10.93-10.18-10.93Z"/>
        <polygon class="cls-3" points="278.57 346.07 278.57 346.07 278.57 346.07 278.57 346.07"/>
        <path class="cls-3" d="m288.75,335.14c0-6.49-4.71-10.93-10.18-10.93s-10.18,4.44-10.18,10.93,4.71,10.94,10.18,10.94c5.47,0,10.18-4.51,10.18-10.94Z"/>
      </g>
      <path class="cls-5" d="m317.97,346.07c-5.46,0-10.04-4.58-10.04-10.86s4.58-11,10.05-11,9.63,4.65,9.63,11-4.24,10.86-9.63,10.86h0Z"/>
      <path class="cls-4" d="m421.58,324.62h-11.26v-18.17h11.26c5.92,0,9.28,4.9,9.28,9.08s-3.36,9.09-9.28,9.09Z"/>
      <path class="cls-4" d="m359.65,334.59c-.2-6.97,5.4-10.52,9.44-10.52,3.14,0,5.81,1.58,6.69,3.83l-16.13,6.7h0Z"/>
      <path class="cls-5" d="m469.53,346.06c-2.59,0-6.21-1.3-6.21-4.5,0-4.09,4.5-5.66,8.39-5.66,3.47,0,5.12.75,7.23,1.77-.62,4.91-4.84,8.39-9.42,8.39Z"/>
      <g>
        <path class="cls-8" d="m170.46,271.82v10.35h-4.28v-24.56h4.28v10.21h11.79v-10.21h4.28v24.56h-4.28v-10.35h-11.79Z"/>
        <path class="cls-8" d="m197.06,277.91c.96.81,2.13,1.21,3.51,1.21,1.05,0,1.97-.19,2.74-.56s1.53-.92,2.28-1.65l2.49,2.21c-.89,1.05-1.95,1.9-3.18,2.53-1.23.63-2.7.95-4.4.95-1.33,0-2.58-.23-3.74-.7-1.16-.47-2.16-1.12-3.02-1.97-.85-.84-1.53-1.85-2.02-3.04-.49-1.18-.74-2.5-.74-3.95,0-1.33.22-2.59.67-3.75.44-1.17,1.07-2.19,1.88-3.07.81-.88,1.76-1.57,2.86-2.09,1.1-.51,2.32-.77,3.65-.77,1.47,0,2.77.27,3.88.81,1.11.54,2.04,1.26,2.77,2.18.74.91,1.29,1.98,1.67,3.19.37,1.22.56,2.49.56,3.83,0,.19,0,.37-.02.56-.01.19-.03.39-.05.6h-13.62c.26,1.52.87,2.68,1.83,3.49Zm7.65-6.3c-.07-.68-.22-1.32-.46-1.91-.23-.6-.55-1.11-.95-1.54-.4-.43-.87-.78-1.42-1.04-.55-.26-1.18-.39-1.88-.39-1.31,0-2.39.45-3.25,1.35-.85.9-1.38,2.08-1.56,3.53h9.51Z"/>
        <path class="cls-8" d="m230.94,264.16c1.02-.6,2.23-.9,3.63-.9,2.04,0,3.63.61,4.77,1.84,1.15,1.23,1.72,2.98,1.72,5.25v11.83h-4.28v-10.5c0-1.47-.33-2.59-.98-3.36-.65-.77-1.57-1.16-2.76-1.16s-2.11.39-2.85,1.17c-.73.78-1.1,1.92-1.1,3.41v10.43h-4.28v-10.54c0-1.45-.33-2.56-.98-3.33-.65-.77-1.57-1.16-2.76-1.16s-2.14.41-2.86,1.23c-.72.82-1.08,1.95-1.08,3.4v10.4h-4.28v-18.53h4.28v2.84c.3-.42.63-.83.98-1.2.35-.38.75-.72,1.21-1.03.46-.31.97-.55,1.54-.73.57-.18,1.21-.27,1.91-.27,1.33,0,2.46.3,3.38.9s1.63,1.4,2.12,2.39c.75-.99,1.63-1.79,2.65-2.39Z"/>
        <path class="cls-8" d="m250.89,277.91c.96.81,2.13,1.21,3.51,1.21,1.05,0,1.97-.19,2.74-.56.77-.37,1.53-.92,2.28-1.65l2.49,2.21c-.89,1.05-1.95,1.9-3.18,2.53s-2.7.95-4.4.95c-1.33,0-2.58-.23-3.74-.7-1.16-.47-2.16-1.12-3.02-1.97-.85-.84-1.53-1.85-2.02-3.04-.49-1.18-.74-2.5-.74-3.95,0-1.33.22-2.59.67-3.75.44-1.17,1.07-2.19,1.88-3.07.81-.88,1.76-1.57,2.86-2.09,1.1-.51,2.32-.77,3.65-.77,1.47,0,2.77.27,3.88.81s2.04,1.26,2.77,2.18c.74.91,1.29,1.98,1.67,3.19.37,1.22.56,2.49.56,3.83,0,.19,0,.37-.02.56-.01.19-.03.39-.05.6h-13.62c.26,1.52.87,2.68,1.82,3.49Zm7.65-6.3c-.07-.68-.22-1.32-.46-1.91-.23-.6-.55-1.11-.95-1.54-.4-.43-.87-.78-1.42-1.04-.55-.26-1.18-.39-1.88-.39-1.31,0-2.39.45-3.25,1.35-.85.9-1.37,2.08-1.56,3.53h9.51Z"/>
        <path class="cls-8" d="m270.96,282.17h-4.28v-18.53h4.28v2.91c.3-.45.64-.87,1-1.26.36-.39.78-.74,1.26-1.04.48-.31,1-.55,1.58-.73s1.22-.27,1.94-.27c2.1,0,3.72.64,4.86,1.93,1.14,1.29,1.71,3.02,1.71,5.19v11.79h-4.28v-10.5c0-1.45-.34-2.56-1.03-3.34-.68-.78-1.65-1.17-2.91-1.17s-2.23.4-2.99,1.21c-.77.81-1.15,1.93-1.15,3.38v10.43Z"/>
        <path class="cls-8" d="m303.28,258.78v23.39h-4.28v-23.39h4.28Z"/>
        <path class="cls-8" d="m313.32,282.17h-4.28v-18.53h4.28v2.91c.3-.45.64-.87,1-1.26.36-.39.78-.74,1.26-1.04.48-.31,1-.55,1.58-.73s1.22-.27,1.94-.27c2.1,0,3.72.64,4.86,1.93,1.14,1.29,1.71,3.02,1.71,5.19v11.79h-4.28v-10.5c0-1.45-.34-2.56-1.03-3.34-.68-.78-1.65-1.17-2.91-1.17s-2.23.4-2.99,1.21c-.77.81-1.15,1.93-1.15,3.38v10.43Z"/>
        <path class="cls-8" d="m344.38,282.17v-3.09c-.68.96-1.52,1.78-2.54,2.46-1.02.68-2.27,1.02-3.76,1.02-1.1,0-2.16-.21-3.19-.63s-1.94-1.05-2.73-1.88c-.79-.83-1.43-1.84-1.93-3.04-.49-1.19-.73-2.56-.73-4.11s.24-2.91.72-4.11c.48-1.19,1.11-2.21,1.91-3.04.79-.83,1.71-1.46,2.75-1.88,1.04-.42,2.11-.63,3.2-.63,1.52,0,2.78.33,3.78.98,1,.66,1.84,1.42,2.52,2.28v-9.97h4.28v25.62h-4.28Zm-.37-11.72c-.29-.73-.68-1.35-1.17-1.88-.49-.53-1.06-.93-1.71-1.21-.65-.28-1.33-.42-2.03-.42s-1.41.13-2.05.4c-.64.27-1.21.66-1.7,1.18-.49.51-.87,1.14-1.15,1.88-.28.74-.42,1.57-.42,2.51s.14,1.74.42,2.47.66,1.36,1.15,1.88c.49.51,1.05.91,1.7,1.19.64.28,1.32.42,2.05.42s1.38-.14,2.03-.42,1.22-.68,1.71-1.21c.49-.53.88-1.15,1.17-1.88s.44-1.54.44-2.46-.15-1.73-.44-2.46Z"/>
        <path class="cls-8" d="m353.68,260.8v-4.04h4.6v4.04h-4.6Zm.18,21.37v-18.53h4.28v18.53h-4.28Z"/>
        <path class="cls-8" d="m367.58,282.17h-4.28v-18.53h4.28v4.18c.58-1.4,1.42-2.53,2.49-3.37,1.08-.84,2.43-1.23,4.07-1.16v4.49h-.25c-.94,0-1.79.15-2.56.46-.77.3-1.44.76-2,1.37-.56.61-.99,1.37-1.3,2.3s-.46,2-.46,3.21v7.05Z"/>
        <path class="cls-8" d="m377.51,260.8v-4.04h4.6v4.04h-4.6Zm.18,21.37v-18.53h4.28v18.53h-4.28Z"/>
        <path class="cls-8" d="m391.4,282.17h-4.28v-18.53h4.28v2.91c.3-.45.64-.87,1-1.26.36-.39.78-.74,1.26-1.04.48-.31,1-.55,1.58-.73s1.22-.27,1.94-.27c2.1,0,3.72.64,4.86,1.93,1.14,1.29,1.71,3.02,1.71,5.19v11.79h-4.28v-10.5c0-1.45-.34-2.56-1.03-3.34-.68-.78-1.65-1.17-2.91-1.17s-2.23.4-2.99,1.21c-.77.81-1.15,1.93-1.15,3.38v10.43Z"/>
      </g>
      <g>
        <g>
          <path class="cls-8" d="m170.43,114.28c-.42.07-.8.19-1.13.33s-.61.34-.83.57-.38.5-.48.8c-.1.3-.14.64-.11,1.04h1.7v4.37h-4.4v-3.33c0-.89.09-1.67.26-2.33.17-.67.44-1.23.81-1.7.37-.47.84-.83,1.41-1.09.57-.26,1.26-.43,2.07-.5l.7,1.85Z"/>
          <path class="cls-8" d="m189.89,112.51v24.9h-4v-1.67h-.11c-.42.37-.83.69-1.24.96-.41.27-.82.49-1.24.65-.42.16-.84.27-1.26.33-.42.06-.84.09-1.26.09-.96,0-1.86-.17-2.7-.5s-1.57-.86-2.18-1.57c-.62-.71-1.1-1.63-1.46-2.76-.36-1.12-.54-2.46-.54-4.01,0-1.18.1-2.25.3-3.2.2-.95.47-1.79.83-2.53.36-.74.77-1.38,1.24-1.92s.98-.99,1.54-1.33c.56-.35,1.13-.6,1.74-.76.6-.16,1.21-.24,1.83-.24.42,0,.83.04,1.22.11.39.07.77.19,1.13.33.36.15.7.33,1.04.54.33.21.65.46.94.76h.19v-8.18h4Zm-7.73,9.8c-.44,0-.85.06-1.22.19-.37.12-.71.31-1.02.56-.31.25-.59.56-.83.94-.25.38-.45.81-.61,1.29-.16.48-.28,1.02-.37,1.61-.09.59-.13,1.25-.13,1.96,0,.91.09,1.71.26,2.4.17.69.43,1.27.76,1.74.33.47.75.82,1.24,1.05.49.23,1.05.35,1.67.35.42,0,.81-.06,1.18-.17s.73-.26,1.07-.46c.35-.2.67-.42.96-.67.3-.25.57-.52.81-.81v-7.92c-.25-.27-.51-.54-.78-.8-.27-.26-.57-.48-.89-.67-.32-.19-.66-.33-1.02-.44-.36-.11-.72-.17-1.09-.17Z"/>
          <path class="cls-8" d="m194.63,120.61c.52-.27,1.05-.52,1.61-.74.56-.22,1.13-.4,1.72-.54.59-.14,1.17-.24,1.74-.31.57-.07,1.11-.11,1.63-.11,1.18,0,2.22.15,3.11.46.89.31,1.63.75,2.22,1.31.59.57,1.04,1.28,1.33,2.13.3.85.44,1.82.44,2.9v7.7c0,.2.02.37.06.52s.09.28.17.39c.07.11.17.2.3.26.12.06.27.09.44.09.15,0,.31-.02.5-.07.18-.05.38-.1.57-.15v2.77c-.17.07-.36.15-.56.22-.2.07-.41.14-.63.19-.22.05-.44.09-.67.13-.22.04-.44.06-.67.06-.37,0-.73-.05-1.07-.15-.35-.1-.66-.24-.94-.43-.28-.19-.52-.43-.72-.74-.2-.31-.33-.7-.41-1.17-.52.49-1.04.9-1.55,1.22-.52.32-1.01.57-1.48.76-.47.18-.93.31-1.39.39-.46.07-.89.11-1.31.11-.72,0-1.44-.11-2.16-.31-.73-.21-1.38-.54-1.96-1-.58-.46-1.04-1.04-1.39-1.74-.35-.7-.52-1.56-.52-2.57s.17-1.86.52-2.61c.35-.75.83-1.38,1.46-1.89.63-.51,1.36-.89,2.18-1.17.83-.27,1.72-.41,2.68-.41.37,0,.74.02,1.11.06.37.04.75.09,1.13.15.38.06.76.16,1.15.3.38.14.78.3,1.2.5v-1.29c0-.69-.1-1.27-.31-1.74-.21-.47-.5-.84-.87-1.13-.37-.28-.8-.49-1.3-.61-.49-.12-1.01-.19-1.55-.19-.42,0-.85.04-1.29.13-.44.09-.88.19-1.31.31-.43.12-.85.27-1.24.43-.4.16-.76.33-1.11.5l-.85-2.92Zm9.84,9.32c-.3-.17-.59-.33-.89-.46-.3-.14-.6-.25-.91-.35-.31-.1-.64-.17-1-.22-.36-.05-.75-.07-1.17-.07-.47,0-.91.06-1.33.19-.42.12-.79.31-1.11.57-.32.26-.57.58-.74.96-.17.38-.26.81-.26,1.28,0,.44.07.85.22,1.22.15.37.36.68.63.93.27.25.62.43,1.04.55.42.12.89.19,1.41.19.39,0,.78-.05,1.15-.15.37-.1.73-.23,1.07-.41.35-.17.68-.38,1-.63.32-.25.62-.49.89-.74v-2.85Z"/>
          <path class="cls-8" d="m217.24,121.54l.15.04c.32-.47.69-.87,1.11-1.2.42-.33.86-.6,1.31-.81.46-.21.92-.36,1.39-.46.47-.1.91-.15,1.33-.15,1.08,0,2.02.16,2.81.48.79.32,1.44.79,1.94,1.41.5.62.88,1.38,1.13,2.28s.37,1.92.37,3.05v11.25h-4v-10.66c0-.86-.1-1.58-.31-2.15s-.48-1.01-.81-1.33c-.33-.32-.71-.55-1.13-.68-.42-.14-.85-.2-1.29-.2-.4,0-.8.07-1.2.22-.41.15-.78.35-1.13.61-.35.26-.66.57-.94.92-.28.36-.51.77-.68,1.24v12.02h-4v-18.13h3.96v2.26Z"/>
          <path class="cls-8" d="m242.99,114.3h4.25v23.11h-4.25v-23.11Z"/>
          <path class="cls-8" d="m256.23,121.54l.15.04c.32-.47.69-.87,1.11-1.2.42-.33.86-.6,1.31-.81.46-.21.92-.36,1.39-.46.47-.1.91-.15,1.33-.15,1.08,0,2.02.16,2.81.48.79.32,1.44.79,1.94,1.41.5.62.88,1.38,1.13,2.28.25.9.37,1.92.37,3.05v11.25h-4v-10.66c0-.86-.11-1.58-.31-2.15-.21-.57-.48-1.01-.81-1.33-.33-.32-.71-.55-1.13-.68-.42-.14-.85-.2-1.29-.2-.39,0-.8.07-1.2.22-.41.15-.78.35-1.13.61-.35.26-.66.57-.94.92-.28.36-.51.77-.68,1.24v12.02h-4v-18.13h3.96v2.26Z"/>
          <path class="cls-8" d="m287.53,112.51v24.9h-4v-1.67h-.11c-.42.37-.83.69-1.24.96-.41.27-.82.49-1.24.65-.42.16-.84.27-1.26.33-.42.06-.84.09-1.26.09-.96,0-1.86-.17-2.7-.5-.84-.33-1.57-.86-2.18-1.57-.62-.71-1.1-1.63-1.46-2.76-.36-1.12-.54-2.46-.54-4.01,0-1.18.1-2.25.3-3.2.2-.95.47-1.79.83-2.53s.77-1.38,1.24-1.92.98-.99,1.54-1.33c.55-.35,1.13-.6,1.74-.76.6-.16,1.21-.24,1.83-.24.42,0,.83.04,1.22.11.39.07.77.19,1.13.33.36.15.7.33,1.04.54.33.21.65.46.94.76h.18v-8.18h4Zm-7.73,9.8c-.44,0-.85.06-1.22.19-.37.12-.71.31-1.02.56-.31.25-.59.56-.83.94-.25.38-.45.81-.61,1.29-.16.48-.28,1.02-.37,1.61-.09.59-.13,1.25-.13,1.96,0,.91.09,1.71.26,2.4.17.69.43,1.27.76,1.74.33.47.75.82,1.24,1.05.49.23,1.05.35,1.67.35.42,0,.81-.06,1.18-.17s.73-.26,1.07-.46c.35-.2.67-.42.96-.67.3-.25.57-.52.81-.81v-7.92c-.25-.27-.51-.54-.78-.8-.27-.26-.57-.48-.89-.67-.32-.19-.66-.33-1.02-.44-.36-.11-.72-.17-1.09-.17Z"/>
          <path class="cls-8" d="m292.05,112.25h4.37v4.11h-4.37v-4.11Zm.15,25.16h4.03v-18.13h-4.03v18.13Z"/>
          <path class="cls-8" d="m304.92,122.16h.15c.25-.54.55-1.01.91-1.41.36-.39.75-.73,1.18-1,.43-.27.89-.47,1.37-.59.48-.12.97-.18,1.46-.18.42,0,.83.03,1.24.09.41.06.81.15,1.2.28v4.18c-.52-.22-1.04-.39-1.57-.5s-1.05-.17-1.57-.17-.97.06-1.42.17c-.46.11-.88.3-1.26.56-.38.26-.72.59-1,.98-.28.39-.51.89-.68,1.48v11.36h-4v-18.13h4v2.89Z"/>
          <path class="cls-8" d="m315.28,112.25h4.37v4.11h-4.37v-4.11Zm.15,25.16h4.03v-18.13h-4.03v18.13Z"/>
          <path class="cls-8" d="m328.12,121.54l.15.04c.32-.47.69-.87,1.11-1.2.42-.33.86-.6,1.31-.81.46-.21.92-.36,1.39-.46.47-.1.91-.15,1.33-.15,1.08,0,2.02.16,2.81.48.79.32,1.44.79,1.94,1.41.5.62.88,1.38,1.13,2.28.25.9.37,1.92.37,3.05v11.25h-4v-10.66c0-.86-.11-1.58-.31-2.15-.21-.57-.48-1.01-.81-1.33-.33-.32-.71-.55-1.13-.68-.42-.14-.85-.2-1.29-.2-.39,0-.8.07-1.2.22-.41.15-.78.35-1.13.61-.35.26-.66.57-.94.92-.28.36-.51.77-.68,1.24v12.02h-4v-18.13h3.96v2.26Z"/>
        </g>
        <rect class="cls-8" x="242.93" y="107.14" width="4.37" height="4.11"/>
      </g>
      <rect class="cls-8" x="298.84" y="252.22" width="4.6" height="4.04"/>
    </g>
  </g>
</svg>